<mxfile host="app.diagrams.net" modified="2024-01-16T15:34:44.619Z" agent="Mozilla/5.0 (Macintosh; Intel Mac OS X 10_15_7) AppleWebKit/537.36 (KHTML, like Gecko) Chrome/120.0.0.0 Safari/537.36" version="22.1.17" etag="D5PFpy23n38H34ymSnFE" type="github">
  <diagram name="Page-1" id="z7CvnJKogNyj9DORri2H">
    <mxGraphModel>
      <root>
        <mxCell id="0" />
        <mxCell id="1" parent="0" />
      </root>
    </mxGraphModel>
  </diagram>
</mxfile>
